<svg xmlns="http://www.w3.org/2000/svg" width="78.375" height="14.355" viewBox="0 0 78.375 14.355">
  <path id="Path_8" data-name="Path 8" d="M.5-10.065v.6l.855.09.255.21V-.9L1.35-.69.5-.615V0h3.57V-.615L3.21-.69,2.955-.9V-4.47c.27-.015.525-.03.75-.03A2.04,2.04,0,0,1,6.06-2.88c.315.96.375,1.935,1.095,2.565A2.228,2.228,0,0,0,8.67.12,5.959,5.959,0,0,0,9.84-.015v-.57H9.7c-1.14,0-1.62-.18-1.95-1.065a12.287,12.287,0,0,0-.7-2.22A2.4,2.4,0,0,0,5.505-4.875c1.62-.36,2.43-1.2,2.43-2.49,0-1.845-1.185-2.7-3.615-2.7Zm2.46.69h.72c1.86,0,2.76.57,2.76,2.13,0,1.485-.855,2.07-2.655,2.07-.09,0-.36,0-.825-.015ZM16.41-1.59a4.278,4.278,0,0,1-2.355.87c-1.515,0-2.52-1.14-2.52-3.06v-.165H16.4c.015-.165.015-.315.015-.465a2.635,2.635,0,0,0-2.7-2.955,3.5,3.5,0,0,0-3.465,3.81c0,2.205,1.365,3.69,3.345,3.69a5.094,5.094,0,0,0,2.82-.9ZM15.075-4.575H11.61a2.07,2.07,0,0,1,1.9-2.115c1.005,0,1.56.66,1.56,1.875ZM23.43-.63v-.78a3.36,3.36,0,0,1-1.9.63c-1.56,0-2.55-1.095-2.55-2.94,0-1.89.915-3.045,2.2-3.045a1.384,1.384,0,0,1,.72.21v1.23a1.21,1.21,0,0,0,.675.225.769.769,0,0,0,.84-.8c0-.87-.81-1.47-2.25-1.47a3.48,3.48,0,0,0-3.555,3.75c0,2.22,1.335,3.72,3.375,3.72A4.848,4.848,0,0,0,23.43-.63Zm2.625-9.99a.861.861,0,0,0-.87.87.858.858,0,0,0,.87.855.858.858,0,0,0,.87-.855A.871.871,0,0,0,26.055-10.62ZM26-7.29l-1.725.54v.465h1.05v5.43l-.255.24-.8.075V0h3.375V-.54l-.81-.075-.27-.24V-7.29ZM28.29,3.27h3.525V2.73l-.96-.075-.255-.24V-.09a8.985,8.985,0,0,0,1.395.135,3.571,3.571,0,0,0,3.69-3.9c0-2.1-1.23-3.51-2.88-3.51a3.691,3.691,0,0,0-2.2.9V-7.29h-.57l-1.74.54v.465h1.065v8.7l-.255.24-.81.075ZM30.6-.87V-5.91a3.132,3.132,0,0,1,1.575-.51c1.305,0,2.19,1.035,2.19,2.76,0,1.845-1.02,3.03-2.49,3.03A4.08,4.08,0,0,1,30.6-.87Zm12.33-.72a4.278,4.278,0,0,1-2.355.87c-1.515,0-2.52-1.14-2.52-3.06v-.165h4.86c.015-.165.015-.315.015-.465a2.635,2.635,0,0,0-2.7-2.955,3.5,3.5,0,0,0-3.465,3.81c0,2.205,1.365,3.69,3.345,3.69a5.094,5.094,0,0,0,2.82-.9ZM41.6-4.575H38.13A2.07,2.07,0,0,1,40.035-6.69c1.005,0,1.56.66,1.56,1.875Zm2.415-5.49v.735l.885.075.24.21v8l-.24.24-.885.075V0h4.635c2.46,0,3.78-1.05,3.78-2.94,0-1.47-.975-2.385-2.73-2.415C51.12-5.73,51.84-6.54,51.84-7.71c0-1.56-1.11-2.355-3.33-2.355ZM47.085-5.6v-3.63c.21-.015.4-.03.6-.03,1.41,0,2.085.555,2.085,1.725,0,1.35-.72,1.95-2.28,1.95A3.655,3.655,0,0,1,47.085-5.6Zm0,4.74v-3.87c.42-.03.75-.03.99-.03,1.5,0,2.25.63,2.25,1.9,0,1.44-.78,2.025-2.52,2.025C47.58-.825,47.34-.84,47.085-.855Zm10.35-6.63a3.634,3.634,0,0,0-3.885,3.84A3.559,3.559,0,0,0,57.315.12,3.592,3.592,0,0,0,61.2-3.615,3.557,3.557,0,0,0,57.435-7.485Zm-.06.8c1.065,0,1.755,1.065,1.755,3.03S58.47-.675,57.36-.675c-1.05,0-1.725-1.065-1.725-3.03C55.635-5.64,56.31-6.69,57.375-6.69Zm8.715-.8A3.634,3.634,0,0,0,62.2-3.645,3.559,3.559,0,0,0,65.97.12a3.592,3.592,0,0,0,3.885-3.735A3.557,3.557,0,0,0,66.09-7.485Zm-.06.8c1.065,0,1.755,1.065,1.755,3.03s-.66,2.985-1.77,2.985c-1.05,0-1.725-1.065-1.725-3.03C64.29-5.64,64.965-6.69,66.03-6.69ZM70.68,0h3.78V-.66l-.75-.06-.195-.21V-3.39h.735L75.99-.585V0h2.88V-.66l-.885-.075L75.6-4.605,77.31-6.51l.975-.12v-.66h-3.06v.66l.66.075.1.165L73.845-3.885h-.33v-7.2h-.63l-2.31.7V-9.8h1.1V-.96l-.21.225-.78.075Z" transform="translate(-0.495 11.085)" fill="#fff"/>
</svg>
